<svg width="213" height="24" viewBox="0 0 213 24" fill="none" xmlns="http://www.w3.org/2000/svg">
<path d="M37.88 19V5H40.02L46.14 15.22H45.02L51.04 5H53.18L53.2 19H50.74L50.72 8.86H51.24L46.12 17.4H44.96L39.76 8.86H40.36V19H37.88ZM56.9816 19V5H59.5816V16.8H66.9016V19H56.9816ZM68.9542 19V5H71.0942L77.2142 15.22H76.0942L82.1142 5H84.2542L84.2742 19H81.8142L81.7942 8.86H82.3142L77.1942 17.4H76.0342L70.8342 8.86H71.4342V19H68.9542ZM94.3958 19V16.84L94.2558 16.38V12.6C94.2558 11.8667 94.0358 11.3 93.5958 10.9C93.1558 10.4867 92.4891 10.28 91.5958 10.28C90.9958 10.28 90.4024 10.3733 89.8158 10.56C89.2424 10.7467 88.7558 11.0067 88.3558 11.34L87.3758 9.52C87.9491 9.08 88.6291 8.75333 89.4158 8.54C90.2158 8.31333 91.0424 8.2 91.8958 8.2C93.4424 8.2 94.6358 8.57333 95.4758 9.32C96.3291 10.0533 96.7558 11.1933 96.7558 12.74V19H94.3958ZM91.0358 19.14C90.2358 19.14 89.5358 19.0067 88.9358 18.74C88.3358 18.46 87.8691 18.08 87.5358 17.6C87.2158 17.1067 87.0558 16.5533 87.0558 15.94C87.0558 15.34 87.1958 14.8 87.4758 14.32C87.7691 13.84 88.2424 13.46 88.8958 13.18C89.5491 12.9 90.4158 12.76 91.4958 12.76H94.5958V14.42H91.6758C90.8224 14.42 90.2491 14.56 89.9558 14.84C89.6624 15.1067 89.5158 15.44 89.5158 15.84C89.5158 16.2933 89.6958 16.6533 90.0558 16.92C90.4158 17.1867 90.9158 17.32 91.5558 17.32C92.1691 17.32 92.7158 17.18 93.1958 16.9C93.6891 16.62 94.0424 16.2067 94.2558 15.66L94.6758 17.16C94.4358 17.7867 94.0024 18.2733 93.3758 18.62C92.7624 18.9667 91.9824 19.14 91.0358 19.14ZM99.9642 19V8.32H102.344V11.26L102.064 10.4C102.384 9.68 102.884 9.13333 103.564 8.76C104.258 8.38667 105.118 8.2 106.144 8.2V10.58C106.038 10.5533 105.938 10.54 105.844 10.54C105.751 10.5267 105.658 10.52 105.564 10.52C104.618 10.52 103.864 10.8 103.304 11.36C102.744 11.9067 102.464 12.7267 102.464 13.82V19H99.9642ZM110.305 16.62L110.365 13.48L115.945 8.32H118.945L114.205 13.08L112.885 14.18L110.305 16.62ZM108.265 19V4.16H110.765V19H108.265ZM116.325 19L112.425 14.18L114.005 12.18L119.365 19H116.325ZM125.57 19.14C124.383 19.14 123.343 18.9067 122.45 18.44C121.57 17.96 120.883 17.3067 120.39 16.48C119.91 15.6533 119.67 14.7133 119.67 13.66C119.67 12.5933 119.903 11.6533 120.37 10.84C120.85 10.0133 121.503 9.36667 122.33 8.9C123.17 8.43333 124.123 8.2 125.19 8.2C126.23 8.2 127.157 8.42667 127.97 8.88C128.783 9.33333 129.423 9.97333 129.89 10.8C130.357 11.6267 130.59 12.6 130.59 13.72C130.59 13.8267 130.583 13.9467 130.57 14.08C130.57 14.2133 130.563 14.34 130.55 14.46H121.65V12.8H129.23L128.25 13.32C128.263 12.7067 128.137 12.1667 127.87 11.7C127.603 11.2333 127.237 10.8667 126.77 10.6C126.317 10.3333 125.79 10.2 125.19 10.2C124.577 10.2 124.037 10.3333 123.57 10.6C123.117 10.8667 122.757 11.24 122.49 11.72C122.237 12.1867 122.11 12.74 122.11 13.38V13.78C122.11 14.42 122.257 14.9867 122.55 15.48C122.843 15.9733 123.257 16.3533 123.79 16.62C124.323 16.8867 124.937 17.02 125.63 17.02C126.23 17.02 126.77 16.9267 127.25 16.74C127.73 16.5533 128.157 16.26 128.53 15.86L129.87 17.4C129.39 17.96 128.783 18.3933 128.05 18.7C127.33 18.9933 126.503 19.14 125.57 19.14ZM137.012 19.14C135.838 19.14 134.932 18.84 134.292 18.24C133.652 17.6267 133.332 16.7267 133.332 15.54V5.96H135.832V15.48C135.832 15.9867 135.958 16.38 136.212 16.66C136.478 16.94 136.845 17.08 137.312 17.08C137.872 17.08 138.338 16.9333 138.712 16.64L139.412 18.42C139.118 18.66 138.758 18.84 138.332 18.96C137.905 19.08 137.465 19.14 137.012 19.14ZM131.572 10.4V8.4H138.692V10.4H131.572ZM141.708 19V5H144.308V19H141.708ZM153.915 8.2C154.768 8.2 155.528 8.36667 156.195 8.7C156.875 9.03333 157.408 9.54667 157.795 10.24C158.182 10.92 158.375 11.8 158.375 12.88V19H155.875V13.2C155.875 12.2533 155.648 11.5467 155.195 11.08C154.755 10.6133 154.135 10.38 153.335 10.38C152.748 10.38 152.228 10.5 151.775 10.74C151.322 10.98 150.968 11.34 150.715 11.82C150.475 12.2867 150.355 12.88 150.355 13.6V19H147.855V8.32H150.235V11.2L149.815 10.32C150.188 9.64 150.728 9.12 151.435 8.76C152.155 8.38667 152.982 8.2 153.915 8.2ZM164.846 19.14C163.953 19.14 163.093 19.0267 162.266 18.8C161.453 18.56 160.806 18.2733 160.326 17.94L161.286 16.04C161.766 16.3467 162.34 16.6 163.006 16.8C163.673 17 164.34 17.1 165.006 17.1C165.793 17.1 166.36 16.9933 166.706 16.78C167.066 16.5667 167.246 16.28 167.246 15.92C167.246 15.6267 167.126 15.4067 166.886 15.26C166.646 15.1 166.333 14.98 165.946 14.9C165.56 14.82 165.126 14.7467 164.646 14.68C164.18 14.6133 163.706 14.5267 163.226 14.42C162.76 14.3 162.333 14.1333 161.946 13.92C161.56 13.6933 161.246 13.3933 161.006 13.02C160.766 12.6467 160.646 12.1533 160.646 11.54C160.646 10.86 160.84 10.2733 161.226 9.78C161.613 9.27333 162.153 8.88667 162.846 8.62C163.553 8.34 164.386 8.2 165.346 8.2C166.066 8.2 166.793 8.28 167.526 8.44C168.26 8.6 168.866 8.82667 169.346 9.12L168.386 11.02C167.88 10.7133 167.366 10.5067 166.846 10.4C166.34 10.28 165.833 10.22 165.326 10.22C164.566 10.22 164 10.3333 163.626 10.56C163.266 10.7867 163.086 11.0733 163.086 11.42C163.086 11.74 163.206 11.98 163.446 12.14C163.686 12.3 164 12.4267 164.386 12.52C164.773 12.6133 165.2 12.6933 165.666 12.76C166.146 12.8133 166.62 12.9 167.086 13.02C167.553 13.14 167.98 13.3067 168.366 13.52C168.766 13.72 169.086 14.0067 169.326 14.38C169.566 14.7533 169.686 15.24 169.686 15.84C169.686 16.5067 169.486 17.0867 169.086 17.58C168.7 18.0733 168.146 18.46 167.426 18.74C166.706 19.0067 165.846 19.14 164.846 19.14ZM171.839 19V8.32H174.339V19H171.839ZM173.099 6.56C172.633 6.56 172.246 6.41333 171.939 6.12C171.646 5.82667 171.499 5.47333 171.499 5.06C171.499 4.63333 171.646 4.28 171.939 4C172.246 3.70667 172.633 3.56 173.099 3.56C173.566 3.56 173.946 3.7 174.239 3.98C174.546 4.24667 174.699 4.58667 174.699 5C174.699 5.44 174.553 5.81333 174.259 6.12C173.966 6.41333 173.579 6.56 173.099 6.56ZM182.46 23.02C181.474 23.02 180.507 22.8867 179.56 22.62C178.627 22.3667 177.86 21.9933 177.26 21.5L178.38 19.62C178.847 20.0067 179.434 20.3133 180.14 20.54C180.86 20.78 181.587 20.9 182.32 20.9C183.494 20.9 184.354 20.6267 184.9 20.08C185.447 19.5467 185.72 18.74 185.72 17.66V15.76L185.92 13.34L185.84 10.92V8.32H188.22V17.38C188.22 19.3133 187.727 20.7333 186.74 21.64C185.754 22.56 184.327 23.02 182.46 23.02ZM182.14 18.52C181.127 18.52 180.207 18.3067 179.38 17.88C178.567 17.44 177.92 16.8333 177.44 16.06C176.974 15.2867 176.74 14.38 176.74 13.34C176.74 12.3133 176.974 11.4133 177.44 10.64C177.92 9.86667 178.567 9.26667 179.38 8.84C180.207 8.41333 181.127 8.2 182.14 8.2C183.047 8.2 183.86 8.38 184.58 8.74C185.3 9.1 185.874 9.66 186.3 10.42C186.74 11.18 186.96 12.1533 186.96 13.34C186.96 14.5267 186.74 15.5067 186.3 16.28C185.874 17.04 185.3 17.6067 184.58 17.98C183.86 18.34 183.047 18.52 182.14 18.52ZM182.52 16.4C183.147 16.4 183.707 16.2733 184.2 16.02C184.694 15.7533 185.074 15.3933 185.34 14.94C185.62 14.4733 185.76 13.94 185.76 13.34C185.76 12.74 185.62 12.2133 185.34 11.76C185.074 11.2933 184.694 10.94 184.2 10.7C183.707 10.4467 183.147 10.32 182.52 10.32C181.894 10.32 181.327 10.4467 180.82 10.7C180.327 10.94 179.94 11.2933 179.66 11.76C179.394 12.2133 179.26 12.74 179.26 13.34C179.26 13.94 179.394 14.4733 179.66 14.94C179.94 15.3933 180.327 15.7533 180.82 16.02C181.327 16.2733 181.894 16.4 182.52 16.4ZM197.567 8.2C198.421 8.2 199.181 8.36667 199.847 8.7C200.527 9.03333 201.061 9.54667 201.447 10.24C201.834 10.92 202.027 11.8 202.027 12.88V19H199.527V13.2C199.527 12.2533 199.301 11.5467 198.847 11.08C198.407 10.6133 197.787 10.38 196.987 10.38C196.401 10.38 195.881 10.5 195.427 10.74C194.974 10.98 194.621 11.34 194.367 11.82C194.127 12.2867 194.007 12.88 194.007 13.6V19H191.507V4.16H194.007V11.2L193.467 10.32C193.841 9.64 194.381 9.12 195.087 8.76C195.807 8.38667 196.634 8.2 197.567 8.2ZM209.219 19.14C208.045 19.14 207.139 18.84 206.499 18.24C205.859 17.6267 205.539 16.7267 205.539 15.54V5.96H208.039V15.48C208.039 15.9867 208.165 16.38 208.419 16.66C208.685 16.94 209.052 17.08 209.519 17.08C210.079 17.08 210.545 16.9333 210.919 16.64L211.619 18.42C211.325 18.66 210.965 18.84 210.539 18.96C210.112 19.08 209.672 19.14 209.219 19.14ZM203.779 10.4V8.4H210.899V10.4H203.779Z" fill="white"/>
<path d="M15.3125 3.875C14.45 3.875 13.75 4.575 13.75 5.4375V18.5625C13.75 19.425 14.45 20.125 15.3125 20.125H15.9375C16.8 20.125 17.5 19.425 17.5 18.5625V5.4375C17.5 4.57417 16.8 3.875 15.9375 3.875H15.3125ZM8.125 9.1875C8.125 8.32417 8.825 7.625 9.6875 7.625H10.3125C11.1758 7.625 11.875 8.325 11.875 9.1875V18.5625C11.875 19.425 11.175 20.125 10.3125 20.125H9.6875C9.2731 20.125 8.87567 19.9604 8.58264 19.6674C8.28962 19.3743 8.125 18.9769 8.125 18.5625V9.1875ZM2.5 12.9375C2.5 12.0742 3.2 11.375 4.0625 11.375H4.6875C5.55083 11.375 6.25 12.075 6.25 12.9375V18.5625C6.25 19.425 5.55 20.125 4.6875 20.125H4.0625C3.6481 20.125 3.25067 19.9604 2.95765 19.6674C2.66462 19.3743 2.5 18.9769 2.5 18.5625V12.9375Z" fill="white"/>
</svg>
