<?xml version="1.0" standalone="no"?>
<!DOCTYPE svg PUBLIC "-//W3C//DTD SVG 20010904//EN"
 "http://www.w3.org/TR/2001/REC-SVG-20010904/DTD/svg10.dtd">
<svg version="1.0" xmlns="http://www.w3.org/2000/svg"
 width="700.000000pt" height="700.000000pt" viewBox="0 0 700.000000 700.000000"
 preserveAspectRatio="xMidYMid meet">
<metadata>
Created by potrace 1.14, written by Peter Selinger 2001-2017
</metadata>
<g transform="translate(0.000000,700.000000) scale(0.100000,-0.100000)"
fill="#000000" stroke="none">
<path d="M5295 6338 c-229 -30 -408 -188 -464 -409 -18 -71 -19 -157 -19
-2429 0 -2273 1 -2358 19 -2429 55 -215 236 -379 452 -408 82 -11 337 -7 408
6 189 36 372 209 415 392 4 19 10 41 12 49 2 8 5 1077 6 2374 1 1913 -1 2371
-12 2424 -22 107 -67 187 -152 272 -125 125 -223 160 -458 164 -81 1 -174 -2
-207 -6z"/>
<path d="M3263 5016 c-197 -48 -362 -217 -405 -416 -12 -55 -14 -341 -13
-1780 l1 -1715 26 -73 c66 -182 196 -306 378 -357 53 -14 101 -18 255 -18 179
0 194 2 268 27 92 31 165 76 225 137 48 50 108 142 123 191 35 112 35 106 34
1848 l-2 1715 -22 70 c-31 95 -71 159 -145 230 -73 71 -158 119 -247 140 -81
19 -399 19 -476 1z"/>
<path d="M1285 3700 c-86 -25 -123 -43 -192 -94 -97 -71 -163 -170 -199 -296
-18 -61 -19 -124 -18 -1105 0 -572 3 -1063 7 -1092 14 -102 66 -200 153 -290
89 -92 197 -147 314 -160 121 -14 358 -8 426 11 160 45 284 146 354 289 60
122 59 97 57 1255 -2 1000 -3 1060 -21 1107 -74 202 -207 328 -397 378 -84 22
-404 20 -484 -3z"/>
</g>
</svg>
